<mxfile host="app.diagrams.net" modified="2020-07-20T16:23:45.638Z" agent="5.0 (Macintosh; Intel Mac OS X 10_15_4) AppleWebKit/537.36 (KHTML, like Gecko) Chrome/83.0.4103.116 Safari/537.36" etag="XFjhf6aRUSPha2NviOmV" version="13.4.9" type="github">
  <diagram id="6a731a19-8d31-9384-78a2-239565b7b9f0" name="Page-1">
    <mxGraphModel dx="527" dy="591" grid="1" gridSize="10" guides="1" tooltips="1" connect="1" arrows="1" fold="1" page="1" pageScale="1" pageWidth="1169" pageHeight="827" background="#ffffff" math="0" shadow="0">
      <root>
        <mxCell id="0" />
        <mxCell id="1" parent="0" />
        <mxCell id="OGD81j1x3ibckMbPT66B-17" style="edgeStyle=orthogonalEdgeStyle;rounded=0;orthogonalLoop=1;jettySize=auto;html=1;exitX=0.5;exitY=1;exitDx=0;exitDy=0;entryX=0.5;entryY=0;entryDx=0;entryDy=0;" edge="1" parent="1" target="OGD81j1x3ibckMbPT66B-1">
          <mxGeometry relative="1" as="geometry">
            <mxPoint x="340" y="250" as="sourcePoint" />
          </mxGeometry>
        </mxCell>
        <mxCell id="AO4CMLymEU1wROSyLqrg-55" value="TerraSAR-X RAW Data" style="rounded=1;whiteSpace=wrap;html=1;" parent="1" vertex="1">
          <mxGeometry x="280" y="190" width="120" height="60" as="geometry" />
        </mxCell>
        <mxCell id="OGD81j1x3ibckMbPT66B-16" style="edgeStyle=orthogonalEdgeStyle;rounded=0;orthogonalLoop=1;jettySize=auto;html=1;exitX=0.5;exitY=1;exitDx=0;exitDy=0;entryX=0.5;entryY=0;entryDx=0;entryDy=0;" edge="1" parent="1" target="OGD81j1x3ibckMbPT66B-10">
          <mxGeometry relative="1" as="geometry">
            <mxPoint x="540" y="250" as="sourcePoint" />
          </mxGeometry>
        </mxCell>
        <mxCell id="AO4CMLymEU1wROSyLqrg-56" value="TanDEM-X RAW Data" style="rounded=1;whiteSpace=wrap;html=1;" parent="1" vertex="1">
          <mxGeometry x="480" y="190" width="120" height="60" as="geometry" />
        </mxCell>
        <mxCell id="OGD81j1x3ibckMbPT66B-14" style="edgeStyle=orthogonalEdgeStyle;rounded=0;orthogonalLoop=1;jettySize=auto;html=1;exitX=0.5;exitY=1;exitDx=0;exitDy=0;entryX=0.5;entryY=0;entryDx=0;entryDy=0;" edge="1" parent="1" source="OGD81j1x3ibckMbPT66B-1" target="OGD81j1x3ibckMbPT66B-2">
          <mxGeometry relative="1" as="geometry" />
        </mxCell>
        <mxCell id="OGD81j1x3ibckMbPT66B-1" value="Create SLC" style="rounded=1;whiteSpace=wrap;html=1;" vertex="1" parent="1">
          <mxGeometry x="280" y="270" width="120" height="60" as="geometry" />
        </mxCell>
        <mxCell id="OGD81j1x3ibckMbPT66B-13" style="edgeStyle=orthogonalEdgeStyle;rounded=0;orthogonalLoop=1;jettySize=auto;html=1;exitX=0.5;exitY=1;exitDx=0;exitDy=0;" edge="1" parent="1" source="OGD81j1x3ibckMbPT66B-2">
          <mxGeometry relative="1" as="geometry">
            <mxPoint x="440" y="450" as="targetPoint" />
          </mxGeometry>
        </mxCell>
        <mxCell id="OGD81j1x3ibckMbPT66B-2" value="Multilook" style="rounded=1;whiteSpace=wrap;html=1;" vertex="1" parent="1">
          <mxGeometry x="280" y="350" width="120" height="60" as="geometry" />
        </mxCell>
        <mxCell id="OGD81j1x3ibckMbPT66B-18" style="edgeStyle=orthogonalEdgeStyle;rounded=0;orthogonalLoop=1;jettySize=auto;html=1;exitX=0.5;exitY=1;exitDx=0;exitDy=0;entryX=0.5;entryY=0;entryDx=0;entryDy=0;" edge="1" parent="1" source="OGD81j1x3ibckMbPT66B-4" target="OGD81j1x3ibckMbPT66B-5">
          <mxGeometry relative="1" as="geometry" />
        </mxCell>
        <mxCell id="OGD81j1x3ibckMbPT66B-4" value="Create Interferogram" style="rounded=1;whiteSpace=wrap;html=1;" vertex="1" parent="1">
          <mxGeometry x="380" y="450" width="120" height="60" as="geometry" />
        </mxCell>
        <mxCell id="OGD81j1x3ibckMbPT66B-19" style="edgeStyle=orthogonalEdgeStyle;rounded=0;orthogonalLoop=1;jettySize=auto;html=1;exitX=0.5;exitY=1;exitDx=0;exitDy=0;" edge="1" parent="1" source="OGD81j1x3ibckMbPT66B-5" target="OGD81j1x3ibckMbPT66B-6">
          <mxGeometry relative="1" as="geometry" />
        </mxCell>
        <mxCell id="OGD81j1x3ibckMbPT66B-5" value="Remove Flat-earth Phase" style="rounded=1;whiteSpace=wrap;html=1;" vertex="1" parent="1">
          <mxGeometry x="380" y="530" width="120" height="60" as="geometry" />
        </mxCell>
        <mxCell id="OGD81j1x3ibckMbPT66B-22" style="edgeStyle=orthogonalEdgeStyle;rounded=0;orthogonalLoop=1;jettySize=auto;html=1;exitX=0.5;exitY=1;exitDx=0;exitDy=0;entryX=0.5;entryY=0;entryDx=0;entryDy=0;" edge="1" parent="1" source="OGD81j1x3ibckMbPT66B-6" target="OGD81j1x3ibckMbPT66B-20">
          <mxGeometry relative="1" as="geometry" />
        </mxCell>
        <mxCell id="OGD81j1x3ibckMbPT66B-6" value="Simulate Topographic Phase using Reference DEM" style="rounded=1;whiteSpace=wrap;html=1;" vertex="1" parent="1">
          <mxGeometry x="380" y="610" width="120" height="60" as="geometry" />
        </mxCell>
        <mxCell id="OGD81j1x3ibckMbPT66B-24" style="edgeStyle=orthogonalEdgeStyle;rounded=0;orthogonalLoop=1;jettySize=auto;html=1;exitX=0.5;exitY=1;exitDx=0;exitDy=0;entryX=0.5;entryY=0;entryDx=0;entryDy=0;" edge="1" parent="1" source="OGD81j1x3ibckMbPT66B-9" target="OGD81j1x3ibckMbPT66B-23">
          <mxGeometry relative="1" as="geometry">
            <mxPoint x="480" y="830" as="targetPoint" />
          </mxGeometry>
        </mxCell>
        <mxCell id="OGD81j1x3ibckMbPT66B-9" value="Geocode" style="rounded=1;whiteSpace=wrap;html=1;" vertex="1" parent="1">
          <mxGeometry x="380" y="770" width="120" height="20" as="geometry" />
        </mxCell>
        <mxCell id="OGD81j1x3ibckMbPT66B-15" style="edgeStyle=orthogonalEdgeStyle;rounded=0;orthogonalLoop=1;jettySize=auto;html=1;exitX=0.5;exitY=1;exitDx=0;exitDy=0;entryX=0.5;entryY=0;entryDx=0;entryDy=0;" edge="1" parent="1" source="OGD81j1x3ibckMbPT66B-10" target="OGD81j1x3ibckMbPT66B-11">
          <mxGeometry relative="1" as="geometry" />
        </mxCell>
        <mxCell id="OGD81j1x3ibckMbPT66B-10" value="Create SLC" style="rounded=1;whiteSpace=wrap;html=1;" vertex="1" parent="1">
          <mxGeometry x="480" y="270" width="120" height="60" as="geometry" />
        </mxCell>
        <mxCell id="OGD81j1x3ibckMbPT66B-12" style="edgeStyle=orthogonalEdgeStyle;rounded=0;orthogonalLoop=1;jettySize=auto;html=1;exitX=0.5;exitY=1;exitDx=0;exitDy=0;entryX=0.5;entryY=0;entryDx=0;entryDy=0;" edge="1" parent="1" source="OGD81j1x3ibckMbPT66B-11" target="OGD81j1x3ibckMbPT66B-4">
          <mxGeometry relative="1" as="geometry" />
        </mxCell>
        <mxCell id="OGD81j1x3ibckMbPT66B-11" value="Multilook" style="rounded=1;whiteSpace=wrap;html=1;" vertex="1" parent="1">
          <mxGeometry x="480" y="350" width="120" height="60" as="geometry" />
        </mxCell>
        <mxCell id="OGD81j1x3ibckMbPT66B-21" style="edgeStyle=orthogonalEdgeStyle;rounded=0;orthogonalLoop=1;jettySize=auto;html=1;exitX=0.5;exitY=1;exitDx=0;exitDy=0;entryX=0.5;entryY=0;entryDx=0;entryDy=0;" edge="1" parent="1" source="OGD81j1x3ibckMbPT66B-20" target="OGD81j1x3ibckMbPT66B-9">
          <mxGeometry relative="1" as="geometry" />
        </mxCell>
        <mxCell id="OGD81j1x3ibckMbPT66B-20" value="Unwrap Phase to Extract Heights" style="rounded=1;whiteSpace=wrap;html=1;" vertex="1" parent="1">
          <mxGeometry x="380" y="690" width="120" height="60" as="geometry" />
        </mxCell>
        <mxCell id="OGD81j1x3ibckMbPT66B-23" value="Geocoded Height Map" style="ellipse;whiteSpace=wrap;html=1;aspect=fixed;" vertex="1" parent="1">
          <mxGeometry x="380" y="820" width="120" height="120" as="geometry" />
        </mxCell>
        <mxCell id="OGD81j1x3ibckMbPT66B-25" value="&lt;font style=&quot;font-size: 16px&quot;&gt;Interferometric Processing Chain&lt;/font&gt;" style="rounded=0;whiteSpace=wrap;html=1;" vertex="1" parent="1">
          <mxGeometry x="280" y="60" width="320" height="60" as="geometry" />
        </mxCell>
        <mxCell id="OGD81j1x3ibckMbPT66B-32" style="edgeStyle=orthogonalEdgeStyle;rounded=0;orthogonalLoop=1;jettySize=auto;html=1;exitX=0.5;exitY=1;exitDx=0;exitDy=0;entryX=1;entryY=0.5;entryDx=0;entryDy=0;" edge="1" parent="1" source="OGD81j1x3ibckMbPT66B-26" target="AO4CMLymEU1wROSyLqrg-55">
          <mxGeometry relative="1" as="geometry" />
        </mxCell>
        <mxCell id="OGD81j1x3ibckMbPT66B-33" style="edgeStyle=orthogonalEdgeStyle;rounded=0;orthogonalLoop=1;jettySize=auto;html=1;exitX=0.5;exitY=1;exitDx=0;exitDy=0;entryX=0;entryY=0.5;entryDx=0;entryDy=0;" edge="1" parent="1" source="OGD81j1x3ibckMbPT66B-26" target="AO4CMLymEU1wROSyLqrg-56">
          <mxGeometry relative="1" as="geometry" />
        </mxCell>
        <mxCell id="OGD81j1x3ibckMbPT66B-26" value="Set up parameters in template file" style="rounded=1;whiteSpace=wrap;html=1;" vertex="1" parent="1">
          <mxGeometry x="280" y="140" width="320" height="30" as="geometry" />
        </mxCell>
      </root>
    </mxGraphModel>
  </diagram>
</mxfile>
